<mxGraphModel
    dx="1434"
    dy="910"
    grid="1"
    gridSize="10"
    guides="1"
    tooltips="1"
    connect="1"
    arrows="1"
    fold="1"
    page="1"
    pageScale="1"
    pageWidth="1100"
    pageHeight="850"
    math="0"
    shadow="0"
>
    <root>
        <mxCell id="0" />
        <mxCell id="1" parent="0" />
        <mxCell
            id="EIoy1vLHnAPG8lMc9awi-1"
            value="User"
            style="swimlane;fontStyle=1;align=center;verticalAlign=top;childLayout=stackLayout;horizontal=1;startSize=26;horizontalStack=0;resizeParent=1;resizeParentMax=0;resizeLast=0;collapsible=1;marginBottom=0;whiteSpace=wrap;html=1;"
            vertex="1"
            parent="1"
        >
            <mxGeometry x="430" y="40" width="160" height="190" as="geometry" />
        </mxCell>
        <mxCell
            id="EIoy1vLHnAPG8lMc9awi-2"
            value="&lt;div&gt;- email: str&lt;/div&gt;&lt;div&gt;- password: str&lt;br&gt;&lt;/div&gt;&lt;div&gt;- user_profile: UserProfile&lt;br&gt;&lt;/div&gt;"
            style="text;strokeColor=none;fillColor=none;align=left;verticalAlign=top;spacingLeft=4;spacingRight=4;overflow=hidden;rotatable=0;points=[[0,0.5],[1,0.5]];portConstraint=eastwest;whiteSpace=wrap;html=1;"
            vertex="1"
            parent="EIoy1vLHnAPG8lMc9awi-1"
        >
            <mxGeometry y="26" width="160" height="54" as="geometry" />
        </mxCell>
        <mxCell
            id="EIoy1vLHnAPG8lMc9awi-3"
            value=""
            style="line;strokeWidth=1;fillColor=none;align=left;verticalAlign=middle;spacingTop=-1;spacingLeft=3;spacingRight=3;rotatable=0;labelPosition=right;points=[];portConstraint=eastwest;strokeColor=inherit;"
            vertex="1"
            parent="EIoy1vLHnAPG8lMc9awi-1"
        >
            <mxGeometry y="80" width="160" height="8" as="geometry" />
        </mxCell>
        <mxCell
            id="EIoy1vLHnAPG8lMc9awi-4"
            value="&lt;div&gt;- add(id: int): boolean&lt;/div&gt;&lt;div&gt;- all(): array&lt;/div&gt;&lt;div&gt;- get(id: int): array&lt;/div&gt;&lt;div&gt;- update(id: int): boolean&lt;/div&gt;&lt;div&gt;- delete(id: int): boolean&lt;br&gt;&lt;/div&gt;&lt;div&gt;- isSeller(): boolean&lt;br&gt;&lt;/div&gt;"
            style="text;strokeColor=none;fillColor=none;align=left;verticalAlign=top;spacingLeft=4;spacingRight=4;overflow=hidden;rotatable=0;points=[[0,0.5],[1,0.5]];portConstraint=eastwest;whiteSpace=wrap;html=1;"
            vertex="1"
            parent="EIoy1vLHnAPG8lMc9awi-1"
        >
            <mxGeometry y="88" width="160" height="102" as="geometry" />
        </mxCell>
        <mxCell
            id="EIoy1vLHnAPG8lMc9awi-5"
            value="UserProfile"
            style="swimlane;fontStyle=1;align=center;verticalAlign=top;childLayout=stackLayout;horizontal=1;startSize=26;horizontalStack=0;resizeParent=1;resizeParentMax=0;resizeLast=0;collapsible=1;marginBottom=0;whiteSpace=wrap;html=1;"
            vertex="1"
            parent="1"
        >
            <mxGeometry x="620" y="320" width="160" height="78" as="geometry" />
        </mxCell>
        <mxCell
            id="EIoy1vLHnAPG8lMc9awi-8"
            value="&lt;div&gt;- add(id: int): boolean&lt;/div&gt;&lt;div&gt;- update(id: int): boolean&lt;/div&gt;&lt;div&gt;- delete(id: int): boolean&lt;br&gt;&lt;/div&gt;"
            style="text;strokeColor=none;fillColor=none;align=left;verticalAlign=top;spacingLeft=4;spacingRight=4;overflow=hidden;rotatable=0;points=[[0,0.5],[1,0.5]];portConstraint=eastwest;whiteSpace=wrap;html=1;"
            vertex="1"
            parent="EIoy1vLHnAPG8lMc9awi-5"
        >
            <mxGeometry y="26" width="160" height="52" as="geometry" />
        </mxCell>
        <mxCell
            id="EIoy1vLHnAPG8lMc9awi-9"
            value=""
            style="endArrow=diamondThin;endFill=1;endSize=24;html=1;rounded=0;entryX=0.506;entryY=1.009;entryDx=0;entryDy=0;entryPerimeter=0;exitX=0.5;exitY=0;exitDx=0;exitDy=0;"
            edge="1"
            parent="1"
            source="EIoy1vLHnAPG8lMc9awi-5"
            target="EIoy1vLHnAPG8lMc9awi-4"
        >
            <mxGeometry width="160" relative="1" as="geometry">
                <mxPoint x="380" y="510" as="sourcePoint" />
                <mxPoint x="540" y="510" as="targetPoint" />
            </mxGeometry>
        </mxCell>
        <mxCell
            id="EIoy1vLHnAPG8lMc9awi-10"
            value="ShoppingCart"
            style="swimlane;fontStyle=1;align=center;verticalAlign=top;childLayout=stackLayout;horizontal=1;startSize=26;horizontalStack=0;resizeParent=1;resizeParentMax=0;resizeLast=0;collapsible=1;marginBottom=0;whiteSpace=wrap;html=1;"
            vertex="1"
            parent="1"
        >
            <mxGeometry x="40" y="40" width="280" height="170" as="geometry" />
        </mxCell>
        <mxCell
            id="EIoy1vLHnAPG8lMc9awi-11"
            value="&lt;div&gt;- cart: dictionary&lt;br&gt;&lt;/div&gt;"
            style="text;strokeColor=none;fillColor=none;align=left;verticalAlign=top;spacingLeft=4;spacingRight=4;overflow=hidden;rotatable=0;points=[[0,0.5],[1,0.5]];portConstraint=eastwest;whiteSpace=wrap;html=1;"
            vertex="1"
            parent="EIoy1vLHnAPG8lMc9awi-10"
        >
            <mxGeometry y="26" width="280" height="24" as="geometry" />
        </mxCell>
        <mxCell
            id="EIoy1vLHnAPG8lMc9awi-12"
            value=""
            style="line;strokeWidth=1;fillColor=none;align=left;verticalAlign=middle;spacingTop=-1;spacingLeft=3;spacingRight=3;rotatable=0;labelPosition=right;points=[];portConstraint=eastwest;strokeColor=inherit;"
            vertex="1"
            parent="EIoy1vLHnAPG8lMc9awi-10"
        >
            <mxGeometry y="50" width="280" height="8" as="geometry" />
        </mxCell>
        <mxCell
            id="EIoy1vLHnAPG8lMc9awi-13"
            value="&lt;div&gt;- addToCart(id: int): boolean&lt;/div&gt;&lt;div&gt;- setProductQuantity(id: int, quantity: int): boolean&lt;/div&gt;&lt;div&gt;- incrementProductQuantity(id: int): boolean&lt;/div&gt;&lt;div&gt;- decrementProductQuantity(id: int): boolean&lt;/div&gt;&lt;div&gt;- removeFromCart(id: int): boolean&lt;/div&gt;&lt;div&gt;- emptyCart(): boolean&lt;br&gt;&lt;/div&gt;&lt;div&gt;- checkout(): boolean&lt;br&gt;&lt;/div&gt;"
            style="text;strokeColor=none;fillColor=none;align=left;verticalAlign=top;spacingLeft=4;spacingRight=4;overflow=hidden;rotatable=0;points=[[0,0.5],[1,0.5]];portConstraint=eastwest;whiteSpace=wrap;html=1;"
            vertex="1"
            parent="EIoy1vLHnAPG8lMc9awi-10"
        >
            <mxGeometry y="58" width="280" height="112" as="geometry" />
        </mxCell>
        <mxCell
            id="EIoy1vLHnAPG8lMc9awi-14"
            value=""
            style="endArrow=open;startArrow=none;endFill=0;startFill=0;endSize=8;html=1;verticalAlign=bottom;labelBackgroundColor=none;strokeWidth=1;rounded=0;entryX=1.002;entryY=0.314;entryDx=0;entryDy=0;entryPerimeter=0;exitX=-0.02;exitY=0.033;exitDx=0;exitDy=0;exitPerimeter=0;"
            edge="1"
            parent="1"
            source="EIoy1vLHnAPG8lMc9awi-4"
            target="EIoy1vLHnAPG8lMc9awi-13"
        >
            <mxGeometry width="160" relative="1" as="geometry">
                <mxPoint x="380" y="310" as="sourcePoint" />
                <mxPoint x="540" y="310" as="targetPoint" />
            </mxGeometry>
        </mxCell>
        <mxCell
            id="EIoy1vLHnAPG8lMc9awi-15"
            value="Order"
            style="swimlane;fontStyle=1;align=center;verticalAlign=top;childLayout=stackLayout;horizontal=1;startSize=26;horizontalStack=0;resizeParent=1;resizeParentMax=0;resizeLast=0;collapsible=1;marginBottom=0;whiteSpace=wrap;html=1;"
            vertex="1"
            parent="1"
        >
            <mxGeometry x="650" y="40" width="280" height="90" as="geometry" />
        </mxCell>
        <mxCell
            id="EIoy1vLHnAPG8lMc9awi-16"
            value="&lt;div&gt;- active(): array&lt;/div&gt;&lt;div&gt;- history() array&lt;br&gt;&lt;/div&gt;&lt;div&gt;- changeStatus(): boolean&lt;br&gt;&lt;/div&gt;&lt;div&gt;- setDone(): boolean&lt;br&gt;&lt;/div&gt;"
            style="text;strokeColor=none;fillColor=none;align=left;verticalAlign=top;spacingLeft=4;spacingRight=4;overflow=hidden;rotatable=0;points=[[0,0.5],[1,0.5]];portConstraint=eastwest;whiteSpace=wrap;html=1;"
            vertex="1"
            parent="EIoy1vLHnAPG8lMc9awi-15"
        >
            <mxGeometry y="26" width="280" height="64" as="geometry" />
        </mxCell>
        <mxCell
            id="EIoy1vLHnAPG8lMc9awi-17"
            value="&lt;div&gt;PaymentProvider&lt;/div&gt;"
            style="swimlane;fontStyle=1;align=center;verticalAlign=top;childLayout=stackLayout;horizontal=1;startSize=26;horizontalStack=0;resizeParent=1;resizeParentMax=0;resizeLast=0;collapsible=1;marginBottom=0;whiteSpace=wrap;html=1;"
            vertex="1"
            parent="1"
        >
            <mxGeometry
                x="840"
                y="265"
                width="160"
                height="180"
                as="geometry"
            />
        </mxCell>
        <mxCell
            id="EIoy1vLHnAPG8lMc9awi-18"
            value="&lt;div&gt;- name: str&lt;/div&gt;&lt;div&gt;- type: enum&lt;/div&gt;&lt;div&gt;- description: str&lt;/div&gt;&lt;div&gt;- account_number: str&lt;br&gt;&lt;/div&gt;"
            style="text;strokeColor=none;fillColor=none;align=left;verticalAlign=top;spacingLeft=4;spacingRight=4;overflow=hidden;rotatable=0;points=[[0,0.5],[1,0.5]];portConstraint=eastwest;whiteSpace=wrap;html=1;"
            vertex="1"
            parent="EIoy1vLHnAPG8lMc9awi-17"
        >
            <mxGeometry y="26" width="160" height="64" as="geometry" />
        </mxCell>
        <mxCell
            id="EIoy1vLHnAPG8lMc9awi-19"
            value=""
            style="line;strokeWidth=1;fillColor=none;align=left;verticalAlign=middle;spacingTop=-1;spacingLeft=3;spacingRight=3;rotatable=0;labelPosition=right;points=[];portConstraint=eastwest;strokeColor=inherit;"
            vertex="1"
            parent="EIoy1vLHnAPG8lMc9awi-17"
        >
            <mxGeometry y="90" width="160" height="8" as="geometry" />
        </mxCell>
        <mxCell
            id="EIoy1vLHnAPG8lMc9awi-20"
            value="&lt;div&gt;- add(id: int): boolean&lt;/div&gt;&lt;div&gt;- all(): array&lt;/div&gt;&lt;div&gt;- get(id: int): array&lt;/div&gt;&lt;div&gt;- update(id: int): boolean&lt;/div&gt;&lt;div&gt;- delete(id: int): boolean&lt;br&gt;&lt;/div&gt;"
            style="text;strokeColor=none;fillColor=none;align=left;verticalAlign=top;spacingLeft=4;spacingRight=4;overflow=hidden;rotatable=0;points=[[0,0.5],[1,0.5]];portConstraint=eastwest;whiteSpace=wrap;html=1;"
            vertex="1"
            parent="EIoy1vLHnAPG8lMc9awi-17"
        >
            <mxGeometry y="98" width="160" height="82" as="geometry" />
        </mxCell>
        <mxCell
            id="EIoy1vLHnAPG8lMc9awi-21"
            value="&lt;div&gt;OrderTrackingHistory&lt;/div&gt;"
            style="swimlane;fontStyle=1;align=center;verticalAlign=top;childLayout=stackLayout;horizontal=1;startSize=26;horizontalStack=0;resizeParent=1;resizeParentMax=0;resizeLast=0;collapsible=1;marginBottom=0;whiteSpace=wrap;html=1;"
            vertex="1"
            parent="1"
        >
            <mxGeometry x="720" y="150" width="280" height="50" as="geometry" />
        </mxCell>
        <mxCell
            id="EIoy1vLHnAPG8lMc9awi-22"
            value="- get(): array"
            style="text;strokeColor=none;fillColor=none;align=left;verticalAlign=top;spacingLeft=4;spacingRight=4;overflow=hidden;rotatable=0;points=[[0,0.5],[1,0.5]];portConstraint=eastwest;whiteSpace=wrap;html=1;"
            vertex="1"
            parent="EIoy1vLHnAPG8lMc9awi-21"
        >
            <mxGeometry y="26" width="280" height="24" as="geometry" />
        </mxCell>
        <mxCell
            id="EIoy1vLHnAPG8lMc9awi-23"
            value="&lt;div&gt;Product&lt;/div&gt;"
            style="swimlane;fontStyle=1;align=center;verticalAlign=top;childLayout=stackLayout;horizontal=1;startSize=26;horizontalStack=0;resizeParent=1;resizeParentMax=0;resizeLast=0;collapsible=1;marginBottom=0;whiteSpace=wrap;html=1;"
            vertex="1"
            parent="1"
        >
            <mxGeometry
                x="110"
                y="270"
                width="160"
                height="200"
                as="geometry"
            />
        </mxCell>
        <mxCell
            id="EIoy1vLHnAPG8lMc9awi-24"
            value="&lt;div&gt;- shop_id: int&lt;/div&gt;&lt;div&gt;- name: str&lt;/div&gt;&lt;div&gt;- stock: int&lt;/div&gt;&lt;div&gt;- price: int&lt;br&gt;&lt;/div&gt;&lt;div&gt;- rating: int&lt;br&gt;&lt;/div&gt;"
            style="text;strokeColor=none;fillColor=none;align=left;verticalAlign=top;spacingLeft=4;spacingRight=4;overflow=hidden;rotatable=0;points=[[0,0.5],[1,0.5]];portConstraint=eastwest;whiteSpace=wrap;html=1;"
            vertex="1"
            parent="EIoy1vLHnAPG8lMc9awi-23"
        >
            <mxGeometry y="26" width="160" height="84" as="geometry" />
        </mxCell>
        <mxCell
            id="EIoy1vLHnAPG8lMc9awi-25"
            value=""
            style="line;strokeWidth=1;fillColor=none;align=left;verticalAlign=middle;spacingTop=-1;spacingLeft=3;spacingRight=3;rotatable=0;labelPosition=right;points=[];portConstraint=eastwest;strokeColor=inherit;"
            vertex="1"
            parent="EIoy1vLHnAPG8lMc9awi-23"
        >
            <mxGeometry y="110" width="160" height="8" as="geometry" />
        </mxCell>
        <mxCell
            id="EIoy1vLHnAPG8lMc9awi-26"
            value="&lt;div&gt;- add(id: int): boolean&lt;/div&gt;&lt;div&gt;- all(): array&lt;/div&gt;&lt;div&gt;- get(id: int): array&lt;/div&gt;&lt;div&gt;- update(id: int): boolean&lt;/div&gt;&lt;div&gt;- delete(id: int): boolean&lt;br&gt;&lt;/div&gt;"
            style="text;strokeColor=none;fillColor=none;align=left;verticalAlign=top;spacingLeft=4;spacingRight=4;overflow=hidden;rotatable=0;points=[[0,0.5],[1,0.5]];portConstraint=eastwest;whiteSpace=wrap;html=1;"
            vertex="1"
            parent="EIoy1vLHnAPG8lMc9awi-23"
        >
            <mxGeometry y="118" width="160" height="82" as="geometry" />
        </mxCell>
        <mxCell
            id="EIoy1vLHnAPG8lMc9awi-27"
            value="&lt;div&gt;Profile&lt;/div&gt;&lt;div&gt;&lt;br&gt;&lt;/div&gt;"
            style="swimlane;fontStyle=1;align=center;verticalAlign=top;childLayout=stackLayout;horizontal=1;startSize=26;horizontalStack=0;resizeParent=1;resizeParentMax=0;resizeLast=0;collapsible=1;marginBottom=0;whiteSpace=wrap;html=1;"
            vertex="1"
            parent="1"
        >
            <mxGeometry x="490" y="470" width="160" height="80" as="geometry" />
        </mxCell>
        <mxCell
            id="EIoy1vLHnAPG8lMc9awi-28"
            value="&lt;div&gt;- name: str&lt;/div&gt;&lt;div&gt;- phone_number: str&lt;/div&gt;&lt;div&gt;- address: str&lt;/div&gt;"
            style="text;strokeColor=none;fillColor=none;align=left;verticalAlign=top;spacingLeft=4;spacingRight=4;overflow=hidden;rotatable=0;points=[[0,0.5],[1,0.5]];portConstraint=eastwest;whiteSpace=wrap;html=1;"
            vertex="1"
            parent="EIoy1vLHnAPG8lMc9awi-27"
        >
            <mxGeometry y="26" width="160" height="54" as="geometry" />
        </mxCell>
        <mxCell
            id="EIoy1vLHnAPG8lMc9awi-31"
            value="&lt;div&gt;Shop&lt;/div&gt;&lt;div&gt;&lt;br&gt;&lt;/div&gt;"
            style="swimlane;fontStyle=1;align=center;verticalAlign=top;childLayout=stackLayout;horizontal=1;startSize=26;horizontalStack=0;resizeParent=1;resizeParentMax=0;resizeLast=0;collapsible=1;marginBottom=0;whiteSpace=wrap;html=1;"
            vertex="1"
            parent="1"
        >
            <mxGeometry x="380" y="330" width="160" height="78" as="geometry" />
        </mxCell>
        <mxCell
            id="EIoy1vLHnAPG8lMc9awi-32"
            value="&lt;div&gt;- add(id: int): boolean&lt;/div&gt;&lt;div&gt;- update(id: int): boolean&lt;/div&gt;&lt;div&gt;- delete(id: int): boolean&lt;br&gt;&lt;/div&gt;"
            style="text;strokeColor=none;fillColor=none;align=left;verticalAlign=top;spacingLeft=4;spacingRight=4;overflow=hidden;rotatable=0;points=[[0,0.5],[1,0.5]];portConstraint=eastwest;whiteSpace=wrap;html=1;"
            vertex="1"
            parent="EIoy1vLHnAPG8lMc9awi-31"
        >
            <mxGeometry y="26" width="160" height="52" as="geometry" />
        </mxCell>
    </root>
</mxGraphModel>
